<?xml version="1.0" encoding="utf-8" ?><svg xmlns="http://www.w3.org/2000/svg" xmlns:xlink="http://www.w3.org/1999/xlink" width="5000" height="5000" viewBox="0 0 5000 5000"><path fill="#A33E43" transform="scale(1.2207 1.2207)" d="M505.217 2088.78C631.98 2198.68 772.62 2274.74 931.054 2309.87C887.546 2346.06 839.647 2377.41 802.316 2418.39C629.187 2608.45 631.439 2898.44 804.25 3081.56C976.347 3263.92 1267.54 3283.45 1468.28 3127.06C1541.51 3070 1596.01 2998.15 1644.4 2919.9C1785.31 2691.92 1925.55 2463.55 2070.04 2237.89C2124.28 2153.18 2200.49 2072.29 2302.75 1985.68Q2324.29 1967.45 2346.54 1950.1Q2368.79 1932.75 2391.73 1916.32Q2414.67 1899.89 2438.25 1884.4Q2461.83 1868.91 2486.03 1854.39Q2487.18 1409.71 2488.34 965.034Q2466.52 976.489 2444.32 987.189Q2422.12 997.889 2399.57 1007.82Q2377.01 1017.75 2354.13 1026.91Q2331.25 1036.06 2308.06 1044.42Q2262.89 1060.72 2216.73 1073.97Q2170.57 1087.22 2123.63 1097.35Q2124.72 888.75 2125.82 680.149C2179.24 675.004 2300.81 655.655 2413.02 563.29Q2417.53 559.568 2421.95 555.744Q2426.37 551.921 2430.7 547.998Q2435.03 544.076 2439.28 540.057Q2443.52 536.038 2447.67 531.924Q2451.82 527.81 2455.88 523.603Q2459.94 519.396 2463.9 515.099Q2467.86 510.802 2471.73 506.416Q2475.59 502.031 2479.36 497.559Q2483.12 493.088 2486.78 488.532Q2490.44 483.976 2494 479.339Q2497.56 474.702 2501.01 469.986Q2504.46 465.27 2507.81 460.477Q2511.15 455.684 2514.39 450.816Q2517.63 445.949 2520.75 441.01Q2523.88 436.071 2526.89 431.062Q2529.9 426.054 2532.8 420.979L2901.52 420.2L2901.52 2230.19C2868.64 2232.95 2835.69 2233.86 2803.35 2238.76C2660.12 2260.48 2538.84 2326.2 2455.96 2444.12C2353.6 2589.75 2262.48 2743.26 2165.58 2892.77C2079.19 3026.06 1998.58 3163.86 1902.95 3290.25C1711.36 3543.51 1454.54 3680.26 1133.25 3676.41C686.211 3671.05 296.993 3314.44 246.776 2870.31C215.531 2594.01 284.459 2347.28 464.331 2133.36C475.84 2119.71 488.481 2106.98 505.217 2088.78Z"/><path fill="#A33E43" transform="scale(1.2207 1.2207)" d="M1798.96 1988.59C1672.68 1875.99 1526.52 1807.79 1359.25 1770.14C1391.26 1750.04 1419.49 1734.5 1445.36 1715.71C1620.75 1588.27 1685.04 1357.1 1602.64 1152.92C1521.07 950.78 1310.61 826.876 1098.39 856.056C729.342 906.846 547.955 1326.1 767.599 1624.88C863.207 1754.94 998.015 1815.09 1157.41 1819.36C1341.2 1824.28 1512.73 1868.01 1665.51 1973.13C1771.27 2045.9 1861.52 2134.93 1931.64 2242.86C1940.28 2256.16 1945.85 2281.84 1938.9 2293.31C1844.43 2448.96 1747.49 2603.07 1646.03 2765.81C1642.83 2737.04 1641.32 2716.21 1638.1 2695.65C1597.14 2434.8 1413.58 2271.16 1146.72 2262.74C987.357 2257.72 838.353 2220.03 700.105 2140.57C280.519 1899.32 114.377 1366.19 333.922 935.035C504.373 600.31 781.255 415.187 1162 419.283C1532.49 423.264 1811.91 597.049 1978.28 928.006C2159.94 1289.42 2077 1704.31 1798.96 1988.59Z"/><path fill="#A33E43" transform="scale(1.2207 1.2207)" d="M2405.6 2654.09C2405.29 2836.28 2453.93 2996.09 2596.42 3117.12C2687.26 3194.27 2794.05 3231.31 2912.8 3232.63C3162.81 3235.38 3375.03 3065.12 3415.34 2830.71C3439.96 2687.57 3413.48 2555.93 3326.66 2438.27C3241.07 2322.24 3123.5 2258.69 2980.96 2235.34L2980.96 1804.18C3077.63 1807.87 3169.55 1824.86 3257.69 1857.64C3851.74 2078.61 4039.31 2807.5 3668.3 3295.06C3410.33 3634.04 2985.98 3761.36 2599.41 3619.8C2379.42 3539.26 2216.61 3387.77 2093.82 3191.36C2086.84 3180.19 2088.7 3156.31 2096.13 3144.38C2198.29 2980.34 2302.15 2817.34 2405.6 2654.09Z"/></svg>